#!OML:ASF H:\Dans Jumps\Project 1\Capture day 1\Session 1\subject.ASF
:FULLY-SPECIFIED
:DEGREES
140
root 0.38474 16.8817 -14.8159 10.2391 -1.96399 -1.48452
lowerback 10.3301 0.21877 -0.328128
upperback 9.28587 0.224323 1.49824
thorax 3.90597 0.0391721 1.72751
lowerneck -13.9859 0.853709 -0.999694
upperneck 27.1202 1.65087 -0.677368
head 11.0746 0.557177 0.146956
rclavicle -8.44835e-015 -1.23246e-014
rhumerus -60.1791 -13.6715 -62.3025
rradius 29.8728
rwrist 25.0464
rhand -21.429 -24.6765
rfingers 7.12502
rthumb 4.96015 -54.5984
lclavicle -8.44835e-015 -1.23246e-014
lhumerus -56.9398 0.577613 82.7871
lradius 23.2348
lwrist 23.5028
lhand -29.6192 -8.44639
lfingers 7.12502
lthumb -2.94973 21.513
rfemur -33.6965 -2.45208 19.7485
rtibia 43.0862
rfoot -18.1777 -5.09544
rtoes 2.70437
lfemur -32.9853 9.16159 -20.2364
ltibia 41.9253
lfoot -16.8403 6.44995
ltoes 1.67074
141
root 0.387349 16.8603 -14.83 10.2713 -1.95711 -1.47632
lowerback 10.5198 0.22962 -0.314762
upperback 9.37426 0.239633 1.47582
thorax 3.89682 0.0477592 1.69564
lowerneck -14.0554 0.842484 -1.02884
upperneck 26.9085 1.63199 -0.646098
head 11.008 0.551379 0.160588
rclavicle -7.35503e-015 6.55989e-015
rhumerus -61.4361 -13.56 -61.6944
rradius 29.6054
rwrist 25.3242
rhand -21.5575 -24.7258
rfingers 7.12502
rthumb 4.83604 -54.6506
lclavicle -7.35503e-015 6.55989e-015
lhumerus -58.2445 0.629176 82.6305
lradius 23.0647
lwrist 23.5608
lhand -29.5114 -8.51291
lfingers 7.12502
lthumb -2.84558 21.4479
rfemur -34.0259 -2.48176 19.744
rtibia 43.5263
rfoot -18.3192 -5.15554
rtoes 2.53825
lfemur -33.3185 9.15532 -20.2725
ltibia 42.3649
lfoot -16.9738 6.51583
ltoes 1.57547
142
root 0.389615 16.8388 -14.844 10.2992 -1.94605 -1.47241
lowerback 10.7072 0.241021 -0.301973
upperback 9.46778 0.255494 1.45818
thorax 3.89464 0.0563819 1.66903
lowerneck -14.1152 0.830377 -1.05732
upperneck 26.6783 1.61214 -0.617496
head 10.9328 0.545126 0.172857
rclavicle -1.2921e-015 -1.41137e-014
rhumerus -62.7035 -13.442 -61.0599
rradius 29.3221
rwrist 25.6001
rhand -21.6487 -24.7779
rfingers 7.12502
rthumb 4.74799 -54.7047
lclavicle -1.2921e-015 -1.41137e-014
lhumerus -59.5569 0.701982 82.4392
lradius 22.8686
lwrist 23.5396
lhand -29.4522 -8.5334
lfingers 7.12502
lthumb -2.78841 21.4281
rfemur -34.3473 -2.5051 19.7438
rtibia 43.9642
rfoot -18.4609 -5.22358
rtoes 2.37811
lfemur -33.6479 9.14745 -20.3015
ltibia 42.8042
lfoot -17.105 6.58268
ltoes 1.46312
143
root 0.391703 16.8172 -14.8576 10.3209 -1.93211 -1.47108
lowerback 10.8933 0.253753 -0.289425
upperback 9.56558 0.272967 1.44535
thorax 3.89795 0.0656008 1.64744
lowerneck -14.1656 0.816812 -1.0873
upperneck 26.4336 1.5918 -0.593874
head 10.8508 0.538103 0.18338
rclavicle -4.96962e-015 2.98177e-015
rhumerus -63.9871 -13.3147 -60.3983
rradius 29.0336
rwrist 25.85
rhand -21.74 -24.8152
rfingers 7.12502
rthumb 4.6598 -54.744
lclavicle -4.96962e-015 2.98177e-015
lhumerus -60.8767 0.785236 82.2201
lradius 22.6465
lwrist 23.4634
lhand -29.4459 -8.54455
lfingers 7.12502
lthumb -2.78239 21.417
rfemur -34.6583 -2.52353 19.7453
rtibia 44.3996
rfoot -18.6038 -5.29612
rtoes 2.23566
lfemur -33.9712 9.13916 -20.3264
ltibia 43.2429
lfoot -17.2347 6.65327
ltoes 1.33426
144
root 0.393447 16.7952 -14.8709 10.3393 -1.91575 -1.47605
lowerback 11.0726 0.269523 -0.274533
upperback 9.66807 0.294439 1.43832
thorax 3.91008 0.0766955 1.63028
lowerneck -14.2076 0.799965 -1.11739
upperneck 26.1802 1.56756 -0.573168
head 10.7642 0.529098 0.19225
rclavicle -1.05356e-014 -1.43125e-014
rhumerus -65.2847 -13.1867 -59.7007
rradius 28.7343
rwrist 26.0609
rhand -21.8045 -24.8086
rfingers 7.12502
rthumb 4.59754 -54.7387
lclavicle -1.05356e-014 -1.43125e-014
lhumerus -62.1969 0.874691 81.9705
lradius 22.4018
lwrist 23.3553
lhand -29.4436 -8.45444
lfingers 7.12502
lthumb -2.78011 21.5072
rfemur -34.9628 -2.53411 19.7536
rtibia 44.8337
rfoot -18.7456 -5.37925
rtoes 2.08211
lfemur -34.2918 9.13356 -20.3436
ltibia 43.6822
lfoot -17.3648 6.72528
ltoes 1.19875
145
root 0.39514 16.773 -14.8845 10.3545 -1.90031 -1.48189
lowerback 11.2477 0.28829 -0.261983
upperback 9.77652 0.319521 1.43606
thorax 3.93106 0.0892371 1.61913
lowerneck -14.2617 0.776547 -1.16334
upperneck 25.9271 1.5377 -0.549207
head 10.6804 0.516368 0.204287
rclavicle -3.18055e-015 -2.5842e-015
rhumerus -66.5916 -13.0504 -58.9777
rradius 28.4357
rwrist 26.2122
rhand -21.8419 -24.7573
rfingers 7.12502
rthumb 4.56141 -54.6882
lclavicle -3.18055e-015 -2.5842e-015
lhumerus -63.5073 0.975172 81.6882
lradius 22.1264
lwrist 23.2185
lhand -29.4489 -8.31268
lfingers 7.12502
lthumb -2.78525 21.6489
rfemur -35.2654 -2.53934 19.762
rtibia 45.2685
rfoot -18.8851 -5.46376
rtoes 1.93686
lfemur -34.6108 9.12701 -20.3599
ltibia 44.123
lfoot -17.4928 6.80623
ltoes 1.05141
